# xmcd
# Track frame offsets:
# 150
# 34570
# 59360
# 80390
# 98845
# 120040
# 143460
# 168260
# 191125
# 210630
# 247085
# 261080
#
# Disc length: 3888 seconds
# Revision: 0
# Processed by: cddbd v1.5PL3 Copyright (c) Steve Scherf et al.
# Submitted via: VisiTrax 2.9.9.202 - For more info visit www.synapsa.com
#
DISCID=980f2e0c
DTITLE=Betty Padgett - Closet Lover
DYEAR=2004
DGENRE=Blues
TTITLE0=Get On The Dance Floor
TTITLE1=Closet Lover
TTITLE2=I Can't Wait
TTITLE3=Right In The Middle Of Falling In Love
TTITLE4=Mature
TTITLE5=99 LBS
TTITLE6=Why
TTITLE7=Crazy Over You
TTITLE8=I'm Getting What I Want
TTITLE9=When A Woman Love A Man
TTITLE10=Picture
TTITLE11=99 LBS "Club Mix"
EXTD=
EXTT0=
EXTT1=
EXTT2=
EXTT3=
EXTT4=
EXTT5=
EXTT6=
EXTT7=
EXTT8=
EXTT9=
EXTT10=
EXTT11=
PLAYORDER=
